<svg id="visual" viewBox="0 0 900 600" width="900" height="600" xmlns="http://www.w3.org/2000/svg" xmlns:xlink="http://www.w3.org/1999/xlink" version="1.1"><rect x="0" y="0" width="900" height="600" fill="#e9e8e8"></rect><defs><linearGradient id="grad1_0" x1="33.3%" y1="0%" x2="100%" y2="100%"><stop offset="20%" stop-color="#e9e8e8" stop-opacity="1"></stop><stop offset="80%" stop-color="#e9e8e8" stop-opacity="1"></stop></linearGradient></defs><defs><linearGradient id="grad2_0" x1="0%" y1="0%" x2="66.7%" y2="100%"><stop offset="20%" stop-color="#e9e8e8" stop-opacity="1"></stop><stop offset="80%" stop-color="#e9e8e8" stop-opacity="1"></stop></linearGradient></defs><g transform="translate(900, 0)"><path d="M0 189.3C-23.3 182.3 -46.7 175.3 -68.9 166.3C-91.1 157.3 -112.2 146.4 -130.8 130.8C-149.4 115.2 -165.6 95 -174.9 72.4C-184.2 49.9 -186.8 24.9 -189.3 0L0 0Z" fill="#562322"></path></g><g transform="translate(0, 600)"><path d="M0 -189.3C25.5 -187.3 51 -185.4 72.4 -174.9C93.9 -164.4 111.2 -145.3 126.6 -126.6C141.9 -107.9 155.3 -89.5 165.4 -68.5C175.5 -47.5 182.4 -23.7 189.3 0L0 0Z" fill="#562322"></path></g></svg>