<svg id="visual" viewBox="0 0 900 600" width="900" height="600" xmlns="http://www.w3.org/2000/svg" xmlns:xlink="http://www.w3.org/1999/xlink" version="1.1"><rect x="0" y="0" width="900" height="600" fill="#d4d0d0"></rect><g fill="#d2c3c2"><circle r="43" cx="324" cy="119"></circle><circle r="43" cx="243" cy="38"></circle><circle r="42" cx="227" cy="537"></circle><circle r="42" cx="393" cy="563"></circle><circle r="42" cx="229" cy="225"></circle><circle r="42" cx="890" cy="306"></circle><circle r="42" cx="543" cy="548"></circle><circle r="42" cx="795" cy="484"></circle><circle r="42" cx="475" cy="83"></circle><circle r="42" cx="77" cy="123"></circle><circle r="42" cx="105" cy="417"></circle><circle r="42" cx="81" cy="31"></circle><circle r="42" cx="849" cy="595"></circle><circle r="42" cx="664" cy="138"></circle><circle r="42" cx="859" cy="203"></circle><circle r="42" cx="49" cy="575"></circle><circle r="42" cx="713" cy="360"></circle><circle r="42" cx="855" cy="51"></circle><circle r="42" cx="360" cy="436"></circle><circle r="42" cx="431" cy="323"></circle><circle r="42" cx="33" cy="253"></circle><circle r="42" cx="662" cy="528"></circle><circle r="42" cx="741" cy="250"></circle><circle r="42" cx="572" cy="21"></circle><circle r="42" cx="581" cy="221"></circle><circle r="42" cx="353" cy="272"></circle><circle r="42" cx="264" cy="393"></circle><circle r="42" cx="592" cy="375"></circle><circle r="42" cx="877" cy="442"></circle></g></svg>