<svg id="visual" viewBox="0 0 600 900" width="600" height="900" xmlns="http://www.w3.org/2000/svg" xmlns:xlink="http://www.w3.org/1999/xlink" version="1.1"><rect x="0" y="0" width="600" height="900" fill="#d4d0d0"></rect><g fill="#d2c3c2"><circle r="43" cx="501" cy="250"></circle><circle r="43" cx="314" cy="341"></circle><circle r="42" cx="301" cy="526"></circle><circle r="42" cx="141" cy="593"></circle><circle r="42" cx="216" cy="106"></circle><circle r="42" cx="126" cy="184"></circle><circle r="42" cx="531" cy="530"></circle><circle r="42" cx="41" cy="77"></circle><circle r="42" cx="168" cy="426"></circle><circle r="42" cx="413" cy="119"></circle><circle r="42" cx="85" cy="303"></circle><circle r="42" cx="21" cy="479"></circle><circle r="42" cx="99" cy="825"></circle><circle r="42" cx="248" cy="702"></circle><circle r="42" cx="530" cy="394"></circle><circle r="42" cx="287" cy="200"></circle><circle r="42" cx="78" cy="700"></circle><circle r="42" cx="525" cy="784"></circle><circle r="42" cx="388" cy="676"></circle><circle r="42" cx="308" cy="437"></circle><circle r="42" cx="451" cy="32"></circle><circle r="42" cx="393" cy="819"></circle><circle r="42" cx="205" cy="3"></circle><circle r="42" cx="301" cy="615"></circle><circle r="42" cx="205" cy="783"></circle><circle r="42" cx="596" cy="205"></circle><circle r="42" cx="430" cy="529"></circle><circle r="42" cx="13" cy="389"></circle><circle r="42" cx="440" cy="346"></circle></g></svg>